<?xml version="1.0" encoding="utf-8"?>
<svg version="1.1" xmlns="http://www.w3.org/2000/svg" xmlns:xlink="http://www.w3.org/1999/xlink" x="0px"
	 y="0px" viewBox="0 0 127.6 17" xml:space="preserve">
<defs>
  <linearGradient id="goldGrad" x1="0%" y1="0%" x2="100%" y2="100%">
    <stop offset="0%" style="stop-color:#ffe566"/>
    <stop offset="30%" style="stop-color:#ffdc40"/>
    <stop offset="60%" style="stop-color:#f5c518"/>
    <stop offset="100%" style="stop-color:#d4a520"/>
  </linearGradient>
</defs>
<g fill="url(#goldGrad)">
	<path d="M44.9,3.3h-9.6v1h8.8l-8.7,10.2h1.4l8.6-10.2c0.2-0.2,0.2-0.3,0.2-0.5C45.6,3.6,45.4,3.3,44.9,3.3z"/>
	<path d="M17,3.9L17,3.9L17,3.9l-6.3-3l-6.3,3l-1.5,6.8l4.3,5.4h0l0,0l0,0h6.9l4.3-5.4L17,3.9L17,3.9z M5,4.4l5.7-2.7
		l5.5,2.7l-12.6,6L5,4.4z M7.2,15l-3.3-4.1l10.7-5.1L7.2,15z M17.8,10.5l-3.9,4.9h-6l8.6-10.8L17.8,10.5z"/>
	<path d="M31.3,8.7c1.2-0.2,2.1-1,2.1-2.5c0-1.9-1.3-2.8-3.4-2.8h-7.3v1h6.9c1.7,0,2.7,0.6,2.7,2c0,1.4-0.8,2-2.4,2
		h-4.7v1h4.8c1.6,0,2.5,0.7,2.5,2.1c0,1.3-1.1,2.1-2.9,2.1h-7v1h7.5c2.2,0,3.4-1.4,3.4-3.1C33.6,9.8,32.7,8.9,31.3,8.7z"/>
	<path d="M53.5,3.3h-6.3v11.2h6.3c3,0,5.2-2.5,5.2-5.7C58.7,5.6,56.5,3.3,53.5,3.3z M53.5,13.5h-5.2V4.4h5.2
		c2.4,0,4.2,1.9,4.2,4.5C57.7,11.5,55.9,13.5,53.5,13.5z"/>
	<polygon points="61.7,4.4 70.3,4.4 70.3,3.3 60.7,3.3 60.7,14.5 70.3,14.5 70.3,13.5 61.7,13.5 	"/>
	<rect x="85.9" y="3.3" width="1" height="11.2"/>
	<path d="M113,3.3V13l-9.1-9.6c-0.2-0.2-0.3-0.3-0.5-0.3c-0.4,0-0.6,0.3-0.6,0.7v10.7h1V4.8l9.1,9.6
		c0.2,0.2,0.4,0.3,0.5,0.3c0.3,0,0.6-0.2,0.6-0.6V3.3H113z"/>
	<path d="M94,9.3h5.7v4.2h-5.5c-2.4,0-4.2-2-4.2-4.6c0-2.7,1.8-4.5,4.2-4.5h5.9v-1h-5.9c-3,0-5.3,2.2-5.3,5.5
		c0,3.3,2.2,5.7,5.3,5.7h6.5V8.3H94V9.3z"/>
	<rect x="63.2" y="8.3" width="6.7" height="1"/>
	<path d="M80.6,8.3h-5.3c-1.3,0-2.1-0.8-2.1-2c0-1.2,0.7-2,2.1-2h8v-1h-8c-2,0-3.1,1.3-3.1,3c0,1.7,1.2,3,3.1,3h5.3
		c1.4,0,2.2,0.7,2.2,2.1c0,1.2-0.7,2.1-2.2,2.1h-8.3v1h8.3c2.1,0,3.2-1.3,3.2-3.1C83.8,9.3,82.7,8.3,80.6,8.3z"/>
</g>
</svg>
